# Blender 4.2.1 LTS
# www.blender.org
mtllib muro.mtl
o Cube.001
v 1.997214 1.000000 0.420848
v 1.997214 -1.000000 0.420848
v 1.997214 1.000000 1.000000
v 1.997214 -1.000000 1.000000
v -2.005301 1.000000 0.420848
v -2.005301 -1.000000 0.420848
v -2.005301 1.000000 1.000000
v -2.005301 -1.000000 1.000000
vn -0.0000 1.0000 -0.0000
vn -0.0000 -0.0000 1.0000
vn -1.0000 -0.0000 -0.0000
vn -0.0000 -1.0000 -0.0000
vn 1.0000 -0.0000 -0.0000
vn -0.0000 -0.0000 -1.0000
vt 0.994410 0.500000
vt 0.550220 0.916453
vt 0.550220 0.500000
vt 0.106030 1.332905
vt 0.106030 0.916453
vt 0.546750 -0.332905
vt 0.102560 0.083547
vt 0.102560 -0.332905
vt 0.106030 0.500000
vt -0.338159 0.916453
vt -0.338159 0.500000
vt 0.546750 0.083547
vt 0.994410 0.916453
vt 0.550220 1.332905
s 0
f 5/1/1 3/2/1 1/3/1
f 3/2/2 8/4/2 4/5/2
f 7/6/3 6/7/3 8/8/3
f 2/9/4 8/10/4 6/11/4
f 1/3/5 4/5/5 2/9/5
f 5/12/6 2/9/6 6/7/6
f 5/1/1 7/13/1 3/2/1
f 3/2/2 7/14/2 8/4/2
f 7/6/3 5/12/3 6/7/3
f 2/9/4 4/5/4 8/10/4
f 1/3/5 3/2/5 4/5/5
f 5/12/6 1/3/6 2/9/6
