# Blender 4.2.1 LTS
# www.blender.org
o Cilindro
v -0.021641 0.007510 -0.222771
v -0.103620 3.718047 -0.196191
v 0.022239 0.008478 -0.222643
v -0.059740 3.719016 -0.196063
v 0.065252 0.009367 -0.213955
v -0.016727 3.719904 -0.187375
v 0.105746 0.010140 -0.197041
v 0.023766 3.720678 -0.170461
v 0.142163 0.010769 -0.172551
v 0.060184 3.721307 -0.145971
v 0.173106 0.011230 -0.141426
v 0.091126 3.721767 -0.114846
v 0.197383 0.011504 -0.104862
v 0.115404 3.722042 -0.078282
v 0.214064 0.011582 -0.064264
v 0.132084 3.722120 -0.037685
v 0.222506 0.011460 -0.021193
v 0.140526 3.721997 0.005386
v 0.222385 0.011143 0.022696
v 0.140405 3.721680 0.049276
v 0.213706 0.010643 0.065717
v 0.131726 3.721180 0.092297
v 0.196802 0.009979 0.106217
v 0.114822 3.720517 0.132797
v 0.172323 0.009178 0.142639
v 0.090344 3.719715 0.169218
v 0.141209 0.008269 0.173583
v 0.059230 3.718806 0.200163
v 0.104657 0.007287 0.197860
v 0.022678 3.717825 0.224440
v 0.064071 0.006271 0.214538
v -0.017908 3.716809 0.241118
v 0.021011 0.005259 0.222975
v -0.060968 3.715797 0.249555
v -0.022869 0.004291 0.222847
v -0.104848 3.714828 0.249427
v -0.065882 0.003403 0.214159
v -0.147861 3.713940 0.240739
v -0.106376 0.002629 0.197245
v -0.188355 3.713166 0.223825
v -0.142793 0.002000 0.172755
v -0.224773 3.712538 0.199335
v -0.173736 0.001539 0.141630
v -0.255715 3.712077 0.168210
v -0.198013 0.001265 0.105066
v -0.279993 3.711802 0.131646
v -0.214694 0.001187 0.064469
v -0.296673 3.711725 0.091048
v -0.223136 0.001309 0.021398
v -0.305115 3.711847 0.047977
v -0.223015 0.001626 -0.022492
v -0.304994 3.712164 0.004088
v -0.214336 0.002126 -0.065513
v -0.296315 3.712664 -0.038934
v -0.197432 0.002790 -0.106013
v -0.279411 3.713327 -0.079433
v -0.172953 0.003591 -0.142435
v -0.254932 3.714129 -0.115855
v -0.141840 0.004500 -0.173379
v -0.223819 3.715038 -0.146799
v -0.105288 0.005482 -0.197656
v -0.187267 3.716019 -0.171077
v -0.064702 0.006498 -0.214334
v -0.146681 3.717036 -0.187754
v -0.121731 3.726866 -0.383586
v -0.040945 3.728650 -0.383351
v 0.038245 3.730285 -0.367356
v 0.112797 3.731709 -0.336216
v 0.179844 3.732867 -0.291128
v 0.236811 3.733715 -0.233825
v 0.281508 3.734221 -0.166508
v 0.312218 3.734364 -0.091765
v 0.327760 3.734139 -0.012468
v 0.327538 3.733555 0.068335
v 0.311559 3.732635 0.147540
v 0.280437 3.731413 0.222103
v 0.235370 3.729937 0.289158
v 0.178088 3.728263 0.346128
v 0.110793 3.726456 0.390825
v 0.036072 3.724586 0.421529
v -0.043206 3.722723 0.437062
v -0.123992 3.720940 0.436827
v -0.203182 3.719305 0.420832
v -0.277733 3.717880 0.389692
v -0.344781 3.716722 0.344604
v -0.401748 3.715874 0.287301
v -0.446445 3.715369 0.219984
v -0.477155 3.715226 0.145241
v -0.492697 3.715450 0.065944
v -0.492474 3.716034 -0.014859
v -0.476495 3.716954 -0.094064
v -0.445374 3.718176 -0.168627
v -0.400307 3.719652 -0.235682
v -0.343025 3.721326 -0.292652
v -0.275730 3.723133 -0.337349
v -0.201008 3.725004 -0.368053
v -0.090122 4.071227 0.029220
vn 0.0028 0.0072 -1.0000
vn 0.1977 0.0114 -0.9802
vn 0.3851 0.0151 -0.9227
vn 0.5577 0.0183 -0.8298
vn 0.7089 0.0207 -0.7050
vn 0.8328 0.0224 -0.5531
vn 0.9247 0.0232 -0.3800
vn 0.9811 0.0231 -0.1922
vn 0.9998 0.0221 0.0029
vn 0.9800 0.0202 0.1979
vn 0.9226 0.0176 0.3854
vn 0.8297 0.0143 0.5580
vn 0.7050 0.0105 0.7091
vn 0.5531 0.0063 0.8331
vn 0.3800 0.0018 0.9250
vn 0.1923 -0.0028 0.9813
vn -0.0028 -0.0072 1.0000
vn -0.1977 -0.0114 0.9802
vn -0.3851 -0.0151 0.9227
vn -0.5577 -0.0183 0.8298
vn -0.7089 -0.0207 0.7050
vn -0.8328 -0.0224 0.5531
vn -0.9247 -0.0232 0.3800
vn -0.9811 -0.0231 0.1922
vn -0.9998 -0.0221 -0.0029
vn -0.9800 -0.0202 -0.1979
vn -0.9226 -0.0176 -0.3854
vn -0.8297 -0.0143 -0.5580
vn -0.7050 -0.0105 -0.7091
vn -0.5531 -0.0063 -0.8331
vn -0.0167 -0.9996 -0.0233
vn -0.3800 -0.0018 -0.9250
vn -0.1923 0.0028 -0.9813
vn 0.0221 -0.9997 -0.0072
vn 0.5186 0.7730 0.3655
vn 0.0518 -0.9980 -0.0368
vn 0.0453 -0.9986 0.0278
vn -0.0168 -0.9998 0.0088
vn 0.0222 -0.9985 -0.0491
vn 0.0140 -0.9987 -0.0484
vn 0.0632 -0.9980 0.0012
vn 0.0059 -0.9995 0.0316
vn -0.0128 -0.9995 -0.0306
vn 0.0570 -0.9979 -0.0304
vn 0.0380 -0.9988 0.0317
vn -0.0191 -0.9998 0.0009
vn 0.0304 -0.9984 -0.0483
vn 0.0608 -0.9981 0.0090
vn -0.0013 -0.9996 0.0277
vn -0.0075 -0.9993 -0.0369
vn 0.0609 -0.9979 -0.0231
vn 0.0301 -0.9990 0.0340
vn -0.0199 -0.9998 -0.0073
vn 0.0382 -0.9982 -0.0459
vn 0.0569 -0.9982 0.0163
vn -0.0077 -0.9997 0.0224
vn -0.0012 -0.9991 -0.0421
vn 0.0633 -0.9979 -0.0152
vn 0.0219 -0.9992 0.0348
vn -0.0191 -0.9997 -0.0155
vn 0.0455 -0.9981 -0.0420
vn 0.0517 -0.9984 0.0226
vn -0.0129 -0.9998 0.0161
vn 0.0061 -0.9989 -0.0460
vn 0.0640 -0.9979 -0.0070
vn 0.0138 -0.9993 0.0340
vn -0.6493 0.7507 -0.1223
vn 0.4381 0.7705 0.4631
vn -0.6122 0.7523 -0.2432
vn 0.3401 0.7678 0.5431
vn -0.0151 0.7684 -0.6398
vn -0.5523 0.7545 -0.3546
vn 0.2284 0.7649 0.6024
vn 0.1107 0.7711 -0.6271
vn -0.4718 0.7569 -0.4521
vn 0.1072 0.7619 0.6387
vn 0.2317 0.7735 -0.5900
vn -0.3738 0.7597 -0.5321
vn -0.0186 0.7591 0.6508
vn 0.3430 0.7755 -0.5300
vn -0.2621 0.7626 -0.5914
vn -0.1445 0.7564 0.6380
vn 0.4406 0.7771 -0.4495
vn -0.1410 0.7655 -0.6278
vn -0.2654 0.7540 0.6009
vn 0.5205 0.7781 -0.3515
vn -0.3768 0.7519 0.5410
vn 0.5798 0.7787 -0.2397
vn -0.4743 0.7504 0.4604
vn 0.6162 0.7786 -0.1186
vn -0.5543 0.7493 0.3624
vn 0.6283 0.7780 0.0074
vn -0.6136 0.7488 0.2507
vn 0.6155 0.7768 0.1332
vn -0.6500 0.7488 0.1295
vn 0.5785 0.7751 0.2541
vn -0.6620 0.7495 0.0036
vn 0.0220 -0.9992 0.0348
vt 1.000000 1.000000
vt 0.968750 0.500000
vt 1.000000 0.500000
vt 0.968750 1.000000
vt 0.937500 0.500000
vt 0.937500 1.000000
vt 0.906250 0.500000
vt 0.906250 1.000000
vt 0.875000 0.500000
vt 0.875000 1.000000
vt 0.843750 0.500000
vt 0.843750 1.000000
vt 0.812500 0.500000
vt 0.812500 1.000000
vt 0.781250 0.500000
vt 0.781250 1.000000
vt 0.750000 0.500000
vt 0.750000 1.000000
vt 0.718750 0.500000
vt 0.718750 1.000000
vt 0.687500 0.500000
vt 0.687500 1.000000
vt 0.656250 0.500000
vt 0.656250 1.000000
vt 0.625000 0.500000
vt 0.625000 1.000000
vt 0.593750 0.500000
vt 0.593750 1.000000
vt 0.562500 0.500000
vt 0.562500 1.000000
vt 0.531250 0.500000
vt 0.531250 1.000000
vt 0.500000 0.500000
vt 0.500000 1.000000
vt 0.468750 0.500000
vt 0.468750 1.000000
vt 0.437500 0.500000
vt 0.437500 1.000000
vt 0.406250 0.500000
vt 0.406250 1.000000
vt 0.375000 0.500000
vt 0.375000 1.000000
vt 0.343750 0.500000
vt 0.343750 1.000000
vt 0.312500 0.500000
vt 0.312500 1.000000
vt 0.281250 0.500000
vt 0.281250 1.000000
vt 0.250000 0.500000
vt 0.250000 1.000000
vt 0.218750 0.500000
vt 0.218750 1.000000
vt 0.187500 0.500000
vt 0.187500 1.000000
vt 0.156250 0.500000
vt 0.156250 1.000000
vt 0.125000 0.500000
vt 0.125000 1.000000
vt 0.093750 0.500000
vt 0.093750 1.000000
vt 0.062500 0.500000
vt 0.062500 1.000000
vt 0.031250 0.500000
vt 0.031250 1.000000
vt 0.000000 0.500000
vt 0.796822 0.014612
vt 0.514612 0.203178
vt 0.703178 0.485388
vt 0.000000 1.000000
vt 0.750000 0.490000
vt 0.796822 0.485388
vt 0.841844 0.471731
vt 0.883337 0.449553
vt 0.919706 0.419706
vt 0.949553 0.383337
vt 0.971731 0.341844
vt 0.985388 0.296822
vt 0.990000 0.250000
vt 0.985388 0.203178
vt 0.971731 0.158156
vt 0.949553 0.116663
vt 0.919706 0.080294
vt 0.883337 0.050447
vt 0.841844 0.028269
vt 0.750000 0.010000
vt 0.703178 0.014612
vt 0.658156 0.028269
vt 0.616663 0.050447
vt 0.580294 0.080294
vt 0.550447 0.116663
vt 0.528269 0.158156
vt 0.510000 0.250000
vt 0.514612 0.296822
vt 0.528269 0.341844
vt 0.550447 0.383337
vt 0.580294 0.419706
vt 0.616663 0.449553
vt 0.658156 0.471731
s 0
f 2/1/1 3/2/1 1/3/1
f 4/4/2 5/5/2 3/2/2
f 6/6/3 7/7/3 5/5/3
f 8/8/4 9/9/4 7/7/4
f 10/10/5 11/11/5 9/9/5
f 12/12/6 13/13/6 11/11/6
f 14/14/7 15/15/7 13/13/7
f 16/16/8 17/17/8 15/15/8
f 18/18/9 19/19/9 17/17/9
f 20/20/10 21/21/10 19/19/10
f 22/22/11 23/23/11 21/21/11
f 24/24/12 25/25/12 23/23/12
f 26/26/13 27/27/13 25/25/13
f 28/28/14 29/29/14 27/27/14
f 30/30/15 31/31/15 29/29/15
f 32/32/16 33/33/16 31/31/16
f 34/34/17 35/35/17 33/33/17
f 36/36/18 37/37/18 35/35/18
f 38/38/19 39/39/19 37/37/19
f 40/40/20 41/41/20 39/39/20
f 42/42/21 43/43/21 41/41/21
f 44/44/22 45/45/22 43/43/22
f 46/46/23 47/47/23 45/45/23
f 48/48/24 49/49/24 47/47/24
f 50/50/25 51/51/25 49/49/25
f 52/52/26 53/53/26 51/51/26
f 54/54/27 55/55/27 53/53/27
f 56/56/28 57/57/28 55/55/28
f 58/58/29 59/59/29 57/57/29
f 60/60/30 61/61/30 59/59/30
f 54/54/31 92/56/31 56/56/31
f 62/62/32 63/63/32 61/61/32
f 64/64/33 1/65/33 63/63/33
f 31/66/34 47/67/34 63/68/34
f 77/26/35 76/24/35 97/26/35
f 10/10/36 70/12/36 12/12/36
f 28/28/37 79/30/37 30/30/37
f 46/46/38 88/48/38 48/48/38
f 2/1/39 66/4/39 4/4/39
f 64/64/40 65/69/40 2/69/40
f 20/20/41 75/22/41 22/22/41
f 38/38/42 84/40/42 40/40/42
f 56/56/43 93/58/43 58/58/43
f 12/12/44 71/14/44 14/14/44
f 30/30/45 80/32/45 32/32/45
f 48/48/46 89/50/46 50/50/46
f 4/4/47 67/6/47 6/6/47
f 22/22/48 76/24/48 24/24/48
f 40/40/49 85/42/49 42/42/49
f 58/58/50 94/60/50 60/60/50
f 14/14/51 72/16/51 16/16/51
f 32/32/52 81/34/52 34/34/52
f 50/50/53 90/52/53 52/52/53
f 6/6/54 68/8/54 8/8/54
f 24/24/55 77/26/55 26/26/55
f 42/42/56 86/44/56 44/44/56
f 60/60/57 95/62/57 62/62/57
f 16/16/58 73/18/58 18/18/58
f 34/34/59 82/36/59 36/36/59
f 52/52/60 91/54/60 54/54/60
f 8/8/61 69/10/61 10/10/61
f 26/26/62 78/28/62 28/28/62
f 44/44/63 87/46/63 46/46/63
f 62/62/64 96/64/64 64/64/64
f 18/18/65 74/20/65 20/20/65
f 36/36/66 83/38/66 38/38/66
f 91/54/67 90/52/67 97/54/67
f 78/28/68 77/26/68 97/28/68
f 92/56/69 91/54/69 97/56/69
f 79/30/70 78/28/70 97/30/70
f 66/4/71 65/1/71 97/4/71
f 93/58/72 92/56/72 97/58/72
f 80/32/73 79/30/73 97/32/73
f 67/6/74 66/4/74 97/6/74
f 94/60/75 93/58/75 97/60/75
f 81/34/76 80/32/76 97/34/76
f 68/8/77 67/6/77 97/8/77
f 95/62/78 94/60/78 97/62/78
f 82/36/79 81/34/79 97/36/79
f 69/10/80 68/8/80 97/10/80
f 96/64/81 95/62/81 97/64/81
f 83/38/82 82/36/82 97/38/82
f 70/12/83 69/10/83 97/12/83
f 65/69/84 96/64/84 97/69/84
f 84/40/85 83/38/85 97/40/85
f 71/14/86 70/12/86 97/14/86
f 85/42/87 84/40/87 97/42/87
f 72/16/88 71/14/88 97/16/88
f 86/44/89 85/42/89 97/44/89
f 73/18/90 72/16/90 97/18/90
f 87/46/91 86/44/91 97/46/91
f 74/20/92 73/18/92 97/20/92
f 88/48/93 87/46/93 97/48/93
f 75/22/94 74/20/94 97/22/94
f 89/50/95 88/48/95 97/50/95
f 76/24/96 75/22/96 97/24/96
f 90/52/97 89/50/97 97/52/97
f 2/1/1 4/4/1 3/2/1
f 4/4/2 6/6/2 5/5/2
f 6/6/3 8/8/3 7/7/3
f 8/8/4 10/10/4 9/9/4
f 10/10/5 12/12/5 11/11/5
f 12/12/6 14/14/6 13/13/6
f 14/14/7 16/16/7 15/15/7
f 16/16/8 18/18/8 17/17/8
f 18/18/9 20/20/9 19/19/9
f 20/20/10 22/22/10 21/21/10
f 22/22/11 24/24/11 23/23/11
f 24/24/12 26/26/12 25/25/12
f 26/26/13 28/28/13 27/27/13
f 28/28/14 30/30/14 29/29/14
f 30/30/15 32/32/15 31/31/15
f 32/32/16 34/34/16 33/33/16
f 34/34/17 36/36/17 35/35/17
f 36/36/18 38/38/18 37/37/18
f 38/38/19 40/40/19 39/39/19
f 40/40/20 42/42/20 41/41/20
f 42/42/21 44/44/21 43/43/21
f 44/44/22 46/46/22 45/45/22
f 46/46/23 48/48/23 47/47/23
f 48/48/24 50/50/24 49/49/24
f 50/50/25 52/52/25 51/51/25
f 52/52/26 54/54/26 53/53/26
f 54/54/27 56/56/27 55/55/27
f 56/56/28 58/58/28 57/57/28
f 58/58/29 60/60/29 59/59/29
f 60/60/30 62/62/30 61/61/30
f 54/54/31 91/54/31 92/56/31
f 62/62/32 64/64/32 63/63/32
f 64/64/33 2/69/33 1/65/33
f 63/68/34 1/70/34 3/71/34
f 3/71/34 5/72/34 7/73/34
f 7/73/34 9/74/34 11/75/34
f 11/75/34 13/76/34 15/77/34
f 15/77/34 17/78/34 19/79/34
f 19/79/34 21/80/34 23/81/34
f 23/81/34 25/82/34 27/83/34
f 27/83/34 29/84/34 31/66/34
f 31/66/34 33/85/34 35/86/34
f 35/86/34 37/87/34 39/88/34
f 39/88/34 41/89/34 43/90/34
f 43/90/34 45/91/34 47/67/34
f 47/67/34 49/92/34 51/93/34
f 51/93/34 53/94/34 55/95/34
f 55/95/34 57/96/34 59/97/34
f 59/97/34 61/98/34 63/68/34
f 63/68/34 3/71/34 7/73/34
f 7/73/34 11/75/34 15/77/34
f 15/77/34 19/79/34 23/81/34
f 23/81/34 27/83/34 31/66/34
f 31/66/34 35/86/34 39/88/34
f 39/88/34 43/90/34 47/67/34
f 47/67/34 51/93/34 55/95/34
f 55/95/34 59/97/34 63/68/34
f 63/68/34 7/73/34 15/77/34
f 15/77/34 23/81/34 31/66/34
f 31/66/34 39/88/34 47/67/34
f 47/67/34 55/95/34 63/68/34
f 63/68/34 15/77/34 31/66/34
f 10/10/36 69/10/36 70/12/36
f 28/28/37 78/28/37 79/30/37
f 46/46/38 87/46/38 88/48/38
f 2/1/39 65/1/39 66/4/39
f 64/64/40 96/64/40 65/69/40
f 20/20/41 74/20/41 75/22/41
f 38/38/42 83/38/42 84/40/42
f 56/56/43 92/56/43 93/58/43
f 12/12/44 70/12/44 71/14/44
f 30/30/45 79/30/45 80/32/45
f 48/48/46 88/48/46 89/50/46
f 4/4/47 66/4/47 67/6/47
f 22/22/48 75/22/48 76/24/48
f 40/40/49 84/40/49 85/42/49
f 58/58/50 93/58/50 94/60/50
f 14/14/51 71/14/51 72/16/51
f 32/32/52 80/32/52 81/34/52
f 50/50/53 89/50/53 90/52/53
f 6/6/54 67/6/54 68/8/54
f 24/24/55 76/24/55 77/26/55
f 42/42/56 85/42/56 86/44/56
f 60/60/57 94/60/57 95/62/57
f 16/16/58 72/16/58 73/18/58
f 34/34/98 81/34/98 82/36/98
f 52/52/60 90/52/60 91/54/60
f 8/8/61 68/8/61 69/10/61
f 26/26/62 77/26/62 78/28/62
f 44/44/63 86/44/63 87/46/63
f 62/62/64 95/62/64 96/64/64
f 18/18/65 73/18/65 74/20/65
f 36/36/66 82/36/66 83/38/66
